<svg width="208" height="139" viewBox="0 0 208 139" fill="none" xmlns="http://www.w3.org/2000/svg">
<circle cx="104.5" cy="69.5" r="69.5" fill="#E6EFFF"/>
<path d="M103.999 44.3655L111.953 44.3377C112.153 44.3317 112.352 44.366 112.539 44.4385C112.726 44.5111 112.896 44.6203 113.04 44.7598C113.184 44.8994 113.299 45.0663 113.377 45.2508C113.455 45.4353 113.495 45.6336 113.495 45.8339C113.495 46.0342 113.455 46.2325 113.377 46.417C113.299 46.6015 113.184 46.7685 113.04 46.908C112.896 47.0475 112.726 47.1568 112.539 47.2293C112.352 47.3018 112.153 47.3361 111.953 47.3302L103.999 47.358L96.0462 47.3302C95.8458 47.3361 95.6463 47.3018 95.4595 47.2293C95.2726 47.1568 95.1022 47.0475 94.9584 46.908C94.8146 46.7685 94.7002 46.6015 94.6221 46.417C94.544 46.2325 94.5038 46.0342 94.5038 45.8339C94.5038 45.6336 94.544 45.4353 94.6221 45.2508C94.7002 45.0663 94.8146 44.8994 94.9584 44.7598C95.1022 44.6203 95.2726 44.5111 95.4595 44.4385C95.6463 44.366 95.8458 44.3317 96.0462 44.3377L103.999 44.3655ZM71.4458 19.9914C71.4756 20.112 71.4812 20.2374 71.4621 20.3601C71.4431 20.4829 71.3998 20.6007 71.3349 20.7066C71.2699 20.8126 71.1845 20.9045 71.0837 20.9772C70.9829 21.0499 70.8686 21.1018 70.7475 21.13C70.6264 21.1581 70.501 21.162 70.3784 21.1413C70.2558 21.1206 70.1385 21.0757 70.0334 21.0094C69.9283 20.943 69.8375 20.8564 69.7662 20.7547C69.6948 20.6529 69.6444 20.538 69.6179 20.4167L66.491 7.15C66.4346 6.90793 66.4767 6.65339 66.608 6.44235C66.7394 6.23131 66.9493 6.08107 67.1915 6.02468C67.4337 5.9683 67.6885 6.01037 67.8996 6.14167C68.1108 6.27296 68.2611 6.48271 68.3176 6.72477L71.4458 19.9914ZM60.5274 29.2523C60.6529 29.2583 60.7759 29.2895 60.8891 29.344C61.0023 29.3984 61.1033 29.475 61.1864 29.5693C61.2694 29.6635 61.3326 29.7734 61.3723 29.8925C61.412 30.0116 61.4274 30.1374 61.4176 30.2626C61.4077 30.3877 61.3729 30.5096 61.315 30.6211C61.2571 30.7325 61.1775 30.8312 61.0807 30.9113C60.984 30.9914 60.8721 31.0512 60.7518 31.0873C60.6315 31.1234 60.5052 31.135 60.3803 31.1214L46.791 30.0259C46.6681 30.0162 46.5483 29.9825 46.4385 29.9266C46.3287 29.8706 46.2309 29.7936 46.1508 29.7C46.0708 29.6063 46.01 29.4978 45.9718 29.3806C45.9337 29.2635 45.9191 29.1399 45.9288 29.0171C45.9384 28.8943 45.9722 28.7746 46.0282 28.6648C46.0841 28.5551 46.1612 28.4574 46.2549 28.3774C46.3486 28.2973 46.4572 28.2366 46.5744 28.1985C46.6917 28.1604 46.8153 28.1458 46.9382 28.1554L60.5314 29.2523H60.5274ZM61.8066 21.1717C61.9836 21.3458 62.0841 21.583 62.0861 21.8312C62.0881 22.0794 61.9914 22.3182 61.8172 22.4951C61.643 22.672 61.4056 22.7725 61.1573 22.7744C60.9089 22.7764 60.67 22.6798 60.493 22.5057L50.7504 12.968C50.6627 12.8818 50.5929 12.7792 50.545 12.666C50.497 12.5529 50.4718 12.4314 50.4708 12.3085C50.4698 12.1856 50.4931 12.0637 50.5392 11.9498C50.5854 11.8359 50.6535 11.7322 50.7398 11.6446C50.826 11.557 50.9287 11.4873 51.0419 11.4394C51.1551 11.3914 51.2767 11.3662 51.3997 11.3653C51.5226 11.3643 51.6446 11.3875 51.7586 11.4336C51.8725 11.4797 51.9763 11.5478 52.064 11.634L61.8066 21.1717ZM34.4212 80.7121C34.4212 81.1105 34.2629 81.4926 33.981 81.7743C33.6991 82.056 33.3167 82.2143 32.9181 82.2143C32.5194 82.2143 32.1371 82.056 31.8552 81.7743C31.5733 81.4926 31.4149 81.1105 31.4149 80.7121V72.0076L24.0079 76.5738C23.8406 76.677 23.6546 76.7463 23.4606 76.7777C23.2665 76.8091 23.0681 76.802 22.8768 76.7568C22.6854 76.7116 22.5049 76.6292 22.3454 76.5143C22.1859 76.3993 22.0507 76.2541 21.9474 76.087C21.8441 75.9198 21.7747 75.7339 21.7433 75.5399C21.7119 75.346 21.719 75.1477 21.7642 74.9565C21.8094 74.7653 21.8919 74.5849 22.0069 74.4255C22.1219 74.2661 22.2672 74.131 22.4345 74.0277L30.0656 69.3198L22.4345 64.6159C22.1015 64.405 21.8651 64.0715 21.7766 63.6876C21.688 63.3037 21.7545 62.9004 21.9616 62.5652C22.1686 62.2299 22.4996 61.9898 22.8827 61.8968C23.2657 61.8038 23.67 61.8655 24.0079 62.0685L31.4149 66.6387V57.9382C31.4149 57.5398 31.5733 57.1577 31.8552 56.876C32.1371 56.5943 32.5194 56.436 32.9181 56.436C33.3167 56.436 33.6991 56.5943 33.981 56.876C34.2629 57.1577 34.4212 57.5398 34.4212 57.9382V66.6387L41.8283 62.0725C42.1661 61.8695 42.5704 61.8078 42.9535 61.9008C43.3366 61.9938 43.6675 62.2339 43.8746 62.5691C44.0817 62.9044 44.1481 63.3077 44.0596 63.6916C43.9711 64.0755 43.7347 64.409 43.4017 64.6199L35.7706 69.3198L43.4017 74.0238C43.7395 74.2323 43.9806 74.5664 44.072 74.9525C44.1633 75.3387 44.0974 75.7453 43.8888 76.083C43.6801 76.4206 43.3458 76.6616 42.9594 76.7529C42.573 76.8442 42.1661 76.7783 41.8283 76.5698L34.4212 72.0036V80.7121ZM67.4162 44.3377C67.8056 44.3493 68.1751 44.512 68.4464 44.7913C68.7177 45.0707 68.8695 45.4446 68.8695 45.8339C68.8695 46.2232 68.7177 46.5972 68.4464 46.8765C68.1751 47.1559 67.8056 47.3186 67.4162 47.3302L5.26102 47.3805C4.66417 47.3867 4.09362 47.6269 3.67218 48.0493C3.25074 48.4717 3.0121 49.0426 3.00761 49.6391V88.6257C3.01075 89.222 3.24917 89.793 3.67108 90.2146C4.093 90.6363 4.66435 90.8745 5.26102 90.8776H63.03V67.5289C63.037 65.142 63.9889 62.8549 65.6778 61.1671C67.3666 59.4793 69.6552 58.528 72.0436 58.521H73.3585V41.7943C73.3522 37.8375 74.1418 33.9199 75.6804 30.2741C77.219 26.6283 79.4753 23.3288 82.3151 20.5716C87.8147 15.2133 95.4378 11.9003 103.997 11.9003C112.556 11.9003 120.183 15.2067 125.682 20.5716C128.521 23.3297 130.776 26.6298 132.314 30.2761C133.851 33.9223 134.64 37.8402 134.632 41.797V58.5237H134.954C137.343 58.5307 139.631 59.482 141.32 61.1697C143.009 62.8575 143.961 65.1446 143.968 67.5315V90.879H202.739C203.336 90.8758 203.907 90.6376 204.329 90.2159C204.751 89.7943 204.989 89.2233 204.992 88.627V49.6391C204.988 49.0426 204.749 48.4717 204.328 48.0493C203.906 47.6269 203.336 47.3867 202.739 47.3805L140.584 47.3302C140.194 47.3186 139.825 47.1559 139.554 46.8765C139.282 46.5972 139.131 46.2232 139.131 45.8339C139.131 45.4446 139.282 45.0707 139.554 44.7913C139.825 44.512 140.194 44.3493 140.584 44.3377L202.739 44.388C204.133 44.3887 205.47 44.942 206.456 45.9264C207.442 46.9108 207.998 48.246 208 49.6391V88.6257C207.997 90.0189 207.441 91.354 206.455 92.3391C205.469 93.3241 204.133 93.8789 202.739 93.882H143.977V110.529C143.977 114.954 138.906 118.858 131.252 121.602C123.748 124.291 113.623 125.99 103.508 125.994H103.477C93.582 126 83.6645 124.373 76.2084 121.777C68.3056 119.026 63.038 115.052 63.0367 110.529H63.03V93.882H5.26102C3.86691 93.8789 2.53077 93.3241 1.54486 92.3391C0.558951 91.354 0.003501 90.0189 0 88.6257V49.6391C0.00245704 48.246 0.557749 46.9108 1.54404 45.9264C2.53032 44.942 3.86707 44.3887 5.26102 44.388L67.4162 44.3377ZM66.0363 98.1978V110.531H66.0297C66.0297 113.608 70.4967 116.617 77.1946 118.95C84.3392 121.438 93.8962 122.996 103.473 122.996H103.504C113.277 122.996 123.035 121.362 130.238 118.781C136.696 116.466 140.975 113.52 140.975 110.524V67.5289C140.969 65.9373 140.334 64.4126 139.208 63.287C138.082 62.1615 136.556 61.5264 134.964 61.5201H72.0476C70.455 61.5264 68.9295 62.1615 67.8035 63.287C66.6774 64.4126 66.0422 65.9373 66.0363 67.5289V98.1978ZM117.783 58.5171L117.907 41.5916V41.5784C117.907 37.8494 116.434 34.5126 113.975 32.1122C111.516 29.7119 108.01 28.2084 104.021 28.2058H103.993C99.9976 28.2058 96.5168 29.6934 94.038 32.1122C92.7792 33.3449 91.7817 34.8184 91.1051 36.4448C90.4284 38.0712 90.0866 39.8171 90.0999 41.5784H90.1065V41.5916C90.1065 41.6327 90.1065 41.6738 90.1065 41.7135L90.2285 58.5171H117.783ZM87.2222 58.5171L87.1002 41.7347C87.1002 41.6883 87.0936 41.6393 87.0936 41.5916V41.5784C87.0796 39.4168 87.5012 37.2746 88.3333 35.2793C89.1654 33.2841 90.391 31.4767 91.9371 29.9649C94.95 27.0228 99.1638 25.2173 103.981 25.2133H104.009C108.826 25.2133 113.039 27.0228 116.052 29.9649C117.599 31.4762 118.826 33.2833 119.659 35.2786C120.492 37.2739 120.915 39.4164 120.901 41.5784V41.5916L120.778 58.5171H131.647V41.7903C131.654 38.2342 130.945 34.7131 129.562 31.4362C128.18 28.1593 126.153 25.1935 123.601 22.715C118.645 17.8852 111.763 14.8994 104.009 14.8994C96.2543 14.8994 89.3735 17.8852 84.4174 22.715C81.8656 25.1935 79.8385 28.1593 78.4563 31.4362C77.0741 34.7131 76.3651 38.2342 76.3714 41.7903V58.5171H87.2222ZM138.387 20.4167C138.328 20.656 138.177 20.8624 137.967 20.9912C137.756 21.12 137.504 21.1609 137.264 21.105C137.023 21.0491 136.815 20.901 136.683 20.6925C136.551 20.4841 136.507 20.2323 136.56 19.9914L139.682 6.72477C139.71 6.60492 139.762 6.49173 139.833 6.39168C139.905 6.29163 139.996 6.20668 140.1 6.14167C140.205 6.07666 140.321 6.03287 140.443 6.0128C140.564 5.99273 140.689 5.99676 140.809 6.02468C140.928 6.05261 141.042 6.10385 141.142 6.17552C141.242 6.24718 141.327 6.33785 141.392 6.44235C141.457 6.54684 141.501 6.66312 141.521 6.78453C141.541 6.90595 141.537 7.03014 141.509 7.15L138.385 20.4167H138.387ZM147.624 31.1214C147.499 31.1351 147.372 31.1236 147.252 31.0876C147.131 31.0515 147.019 30.9916 146.922 30.9115C146.826 30.8313 146.746 30.7325 146.688 30.621C146.63 30.5094 146.595 30.3873 146.585 30.262C146.576 30.1367 146.591 30.0108 146.631 29.8916C146.671 29.7724 146.734 29.6624 146.818 29.5682C146.901 29.4741 147.002 29.3975 147.116 29.3433C147.229 29.289 147.352 29.258 147.478 29.2523L161.071 28.1554C161.194 28.1458 161.318 28.1604 161.435 28.1985C161.552 28.2366 161.661 28.2973 161.754 28.3774C161.848 28.4574 161.925 28.5551 161.981 28.6648C162.037 28.7746 162.071 28.8943 162.081 29.0171C162.09 29.1399 162.076 29.2635 162.037 29.3806C161.999 29.4978 161.939 29.6063 161.858 29.7C161.778 29.7936 161.681 29.8706 161.571 29.9266C161.461 29.9825 161.341 30.0162 161.218 30.0259L147.624 31.1214ZM147.512 22.511C147.425 22.5972 147.321 22.6653 147.207 22.7114C147.093 22.7575 146.971 22.7807 146.848 22.7798C146.725 22.7788 146.604 22.7536 146.49 22.7057C146.377 22.6577 146.274 22.588 146.188 22.5004C146.102 22.4128 146.034 22.3091 145.988 22.1952C145.941 22.0813 145.918 21.9594 145.919 21.8365C145.92 21.7136 145.945 21.5921 145.993 21.479C146.041 21.3658 146.111 21.2632 146.199 21.177L155.941 11.6393C156.118 11.4652 156.357 11.3686 156.606 11.3706C156.854 11.3725 157.091 11.473 157.266 11.6499C157.44 11.8268 157.537 12.0656 157.535 12.3138C157.533 12.562 157.432 12.7992 157.255 12.9733L147.512 22.511ZM176.585 80.7121C176.585 81.1105 176.427 81.4926 176.145 81.7743C175.863 82.056 175.481 82.2143 175.082 82.2143C174.683 82.2143 174.301 82.056 174.019 81.7743C173.737 81.4926 173.579 81.1105 173.579 80.7121V72.0076L166.172 76.5738C165.834 76.7823 165.427 76.8481 165.041 76.7568C164.654 76.6655 164.32 76.4246 164.111 76.087C163.903 75.7493 163.837 75.3427 163.928 74.9565C164.019 74.5703 164.261 74.2362 164.598 74.0277L172.229 69.3198L164.598 64.6159C164.265 64.405 164.029 64.0715 163.94 63.6876C163.852 63.3037 163.918 62.9004 164.125 62.5652C164.332 62.2299 164.663 61.9898 165.047 61.8968C165.43 61.8038 165.834 61.8655 166.172 62.0685L173.579 66.6347V57.9382C173.579 57.5398 173.737 57.1577 174.019 56.876C174.301 56.5943 174.683 56.436 175.082 56.436C175.481 56.436 175.863 56.5943 176.145 56.876C176.427 57.1577 176.585 57.5398 176.585 57.9382V66.6387L183.992 62.0725C184.33 61.8695 184.734 61.8078 185.117 61.9008C185.5 61.9938 185.831 62.2339 186.038 62.5691C186.246 62.9044 186.312 63.3077 186.223 63.6916C186.135 64.0755 185.899 64.409 185.566 64.6199L177.934 69.3198L185.566 74.0238C185.903 74.2323 186.144 74.5664 186.236 74.9525C186.327 75.3387 186.261 75.7453 186.053 76.083C185.844 76.4206 185.51 76.6616 185.123 76.7529C184.737 76.8442 184.33 76.7783 183.992 76.5698L176.585 72.0036V80.7121ZM96.7289 89.2947C95.6845 88.3442 94.8486 87.1877 94.274 85.8982C93.5944 84.363 93.3086 82.6827 93.4423 81.0094C93.576 79.336 94.125 77.7223 95.0397 76.3144C95.9544 74.9064 97.2059 73.7485 98.6809 72.9455C100.156 72.1424 101.808 71.7195 103.488 71.7151C105.168 71.7106 106.822 72.1248 108.301 72.92C109.781 73.7152 111.038 74.8664 111.96 76.2695C112.883 77.6727 113.44 79.2834 113.583 80.956C113.725 82.6286 113.448 84.3104 112.777 85.8492C112.218 87.1274 111.407 88.2796 110.391 89.2364C110.088 89.5151 109.867 89.8715 109.752 90.267C109.647 90.6705 109.654 91.0953 109.773 91.4949L111.933 99.0946C111.941 99.1203 111.947 99.1464 111.953 99.1728C113.387 104.184 111.451 106.179 108.613 107.006C107.155 107.432 105.518 107.453 104.07 107.472H103.607H103.561H103.098C101.649 107.453 100.014 107.432 98.5541 107.006C95.7003 106.174 93.7597 104.163 95.2403 99.0893L97.3717 91.5744C97.4959 91.1723 97.5013 90.7429 97.3873 90.3378C97.2733 89.9327 97.0446 89.5691 96.7289 89.2907V89.2947ZM97.0284 84.6861C97.431 85.596 98.0177 86.4128 98.7516 87.0851C99.4803 87.7368 100.009 88.5817 100.277 89.5218C100.544 90.4618 100.539 91.4583 100.263 92.3957L98.1246 99.9053V99.9133C97.3055 102.719 98.1246 103.755 99.3958 104.128C100.472 104.442 101.888 104.461 103.142 104.477L103.591 104.483L104.042 104.477C105.296 104.461 106.711 104.442 107.788 104.128C109.046 103.761 109.862 102.738 109.08 99.9888L109.052 99.9014L106.893 92.3017C106.624 91.378 106.618 90.3978 106.874 89.4706C107.13 88.5434 107.639 87.7056 108.344 87.0507C109.065 86.373 109.642 85.5565 110.038 84.6503C110.507 83.5695 110.699 82.389 110.597 81.2155C110.495 80.0419 110.102 78.9122 109.454 77.9284C108.806 76.9446 107.923 76.1375 106.884 75.5801C105.846 75.0228 104.685 74.7326 103.506 74.7359C102.327 74.7391 101.168 75.0356 100.133 75.5987C99.0973 76.1618 98.2186 76.9737 97.5758 77.9611C96.933 78.9484 96.5464 80.0803 96.4508 81.2544C96.3552 82.4285 96.5537 83.6079 97.0284 84.6861Z" fill="#014FCD"/>
<path d="M71.4621 20.3601C71.4812 20.2374 71.4756 20.112 71.4458 19.9914L68.3176 6.72477C68.2611 6.48271 68.1108 6.27296 67.8996 6.14167C67.6885 6.01037 67.4337 5.9683 67.1915 6.02468C66.9493 6.08107 66.7394 6.23131 66.608 6.44235C66.4767 6.65339 66.4346 6.90793 66.491 7.15L69.6179 20.4167C69.6444 20.538 69.6948 20.6529 69.7662 20.7547C69.8375 20.8564 69.9283 20.943 70.0334 21.0094C70.1385 21.0757 70.2558 21.1206 70.3784 21.1413C70.501 21.162 70.6264 21.1581 70.7475 21.13C70.8686 21.1018 70.9829 21.0499 71.0837 20.9772C71.1845 20.9045 71.2699 20.8126 71.3349 20.7066C71.3998 20.6007 71.4431 20.4829 71.4621 20.3601Z" fill="#014FCD"/>
<path d="M60.8891 29.344C60.7759 29.2895 60.6529 29.2583 60.5274 29.2523H60.5314L46.9382 28.1554C46.8153 28.1458 46.6917 28.1604 46.5744 28.1985C46.4572 28.2366 46.3486 28.2973 46.2549 28.3774C46.1612 28.4574 46.0841 28.5551 46.0282 28.6648C45.9722 28.7746 45.9384 28.8943 45.9288 29.0171C45.9191 29.1399 45.9337 29.2635 45.9718 29.3806C46.01 29.4978 46.0708 29.6063 46.1508 29.7C46.2309 29.7936 46.3287 29.8706 46.4385 29.9266C46.5483 29.9825 46.6681 30.0162 46.791 30.0259L60.3803 31.1214C60.5052 31.135 60.6315 31.1234 60.7518 31.0873C60.8721 31.0512 60.984 30.9914 61.0807 30.9113C61.1775 30.8312 61.2571 30.7325 61.315 30.6211C61.3729 30.5096 61.4077 30.3877 61.4176 30.2626C61.4274 30.1374 61.412 30.0116 61.3723 29.8925C61.3326 29.7734 61.2694 29.6635 61.1864 29.5693C61.1033 29.475 61.0023 29.3984 60.8891 29.344Z" fill="#014FCD"/>
<path d="M62.0861 21.8312C62.0841 21.583 61.9836 21.3458 61.8066 21.1717L52.064 11.634C51.9763 11.5478 51.8725 11.4797 51.7586 11.4336C51.6446 11.3875 51.5226 11.3643 51.3997 11.3653C51.2767 11.3662 51.1551 11.3914 51.0419 11.4394C50.9287 11.4873 50.826 11.557 50.7398 11.6446C50.6535 11.7322 50.5854 11.8359 50.5392 11.9498C50.4931 12.0637 50.4698 12.1856 50.4708 12.3085C50.4718 12.4314 50.497 12.5529 50.545 12.666C50.5929 12.7792 50.6627 12.8818 50.7504 12.968L60.493 22.5057C60.67 22.6798 60.9089 22.7764 61.1573 22.7744C61.4056 22.7725 61.643 22.672 61.8172 22.4951C61.9914 22.3182 62.0881 22.0794 62.0861 21.8312Z" fill="#014FCD"/>
<path d="M71.4457 19.9914C71.4755 20.112 71.4811 20.2374 71.462 20.3601C71.443 20.4829 71.3997 20.6007 71.3348 20.7066C71.2698 20.8126 71.1844 20.9045 71.0836 20.9772C70.9828 21.0499 70.8685 21.1018 70.7474 21.13C70.6263 21.1581 70.5009 21.162 70.3783 21.1413C70.2557 21.1206 70.1384 21.0757 70.0333 21.0094C69.9282 20.943 69.8374 20.8564 69.7661 20.7547C69.6947 20.6529 69.6443 20.538 69.6178 20.4167L66.4909 7.15C66.4345 6.90793 66.4766 6.65339 66.6079 6.44235C66.7393 6.23131 66.9492 6.08107 67.1914 6.02468C67.4336 5.9683 67.6884 6.01037 67.8995 6.14167C68.1107 6.27296 68.261 6.48271 68.3174 6.72477L71.4457 19.9914ZM60.5273 29.2523C60.6528 29.2583 60.7758 29.2895 60.889 29.344C61.0022 29.3984 61.1032 29.475 61.1863 29.5693C61.2693 29.6635 61.3325 29.7734 61.3722 29.8925C61.4119 30.0116 61.4273 30.1374 61.4175 30.2626C61.4076 30.3877 61.3727 30.5096 61.3149 30.6211C61.257 30.7325 61.1774 30.8312 61.0806 30.9113C60.9839 30.9914 60.872 31.0512 60.7517 31.0873C60.6314 31.1234 60.5051 31.135 60.3802 31.1214L46.7909 30.0259C46.668 30.0162 46.5482 29.9825 46.4384 29.9266C46.3286 29.8706 46.2308 29.7936 46.1507 29.7C46.0707 29.6063 46.0098 29.4978 45.9717 29.3806C45.9336 29.2635 45.919 29.1399 45.9287 29.0171C45.9383 28.8943 45.9721 28.7746 46.0281 28.6648C46.084 28.5551 46.161 28.4574 46.2548 28.3774C46.3485 28.2973 46.4571 28.2366 46.5743 28.1985C46.6916 28.1604 46.8152 28.1458 46.9381 28.1554L60.5313 29.2523H60.5273ZM61.8065 21.1717C61.9835 21.3458 62.084 21.583 62.086 21.8312C62.088 22.0794 61.9913 22.3182 61.8171 22.4951C61.6429 22.672 61.4055 22.7725 61.1572 22.7744C60.9088 22.7764 60.6699 22.6798 60.4929 22.5057L50.7503 12.968C50.6626 12.8818 50.5928 12.7792 50.5449 12.666C50.4969 12.5529 50.4717 12.4314 50.4707 12.3085C50.4697 12.1856 50.493 12.0637 50.5391 11.9498C50.5853 11.8359 50.6534 11.7322 50.7397 11.6446C50.8259 11.557 50.9286 11.4873 51.0418 11.4394C51.155 11.3914 51.2766 11.3662 51.3996 11.3653C51.5225 11.3643 51.6445 11.3875 51.7585 11.4336C51.8724 11.4797 51.9762 11.5478 52.0639 11.634L61.8065 21.1717ZM138.387 20.4167C138.328 20.656 138.177 20.8624 137.967 20.9912C137.756 21.12 137.504 21.1609 137.264 21.105C137.023 21.0491 136.815 20.901 136.683 20.6925C136.551 20.4841 136.507 20.2323 136.559 19.9914L139.682 6.72477C139.71 6.60492 139.762 6.49173 139.833 6.39168C139.905 6.29163 139.996 6.20668 140.1 6.14167C140.205 6.07666 140.321 6.03287 140.443 6.0128C140.564 5.99273 140.688 5.99676 140.808 6.02468C140.928 6.05261 141.042 6.10385 141.142 6.17552C141.242 6.24718 141.327 6.33785 141.392 6.44235C141.457 6.54684 141.501 6.66312 141.521 6.78453C141.541 6.90595 141.537 7.03014 141.509 7.15L138.385 20.4167H138.387ZM147.624 31.1214C147.499 31.1351 147.372 31.1236 147.252 31.0876C147.131 31.0515 147.019 30.9916 146.922 30.9115C146.825 30.8313 146.746 30.7325 146.688 30.621C146.63 30.5094 146.595 30.3873 146.585 30.262C146.575 30.1367 146.591 30.0108 146.631 29.8916C146.671 29.7724 146.734 29.6624 146.818 29.5682C146.901 29.4741 147.002 29.3975 147.116 29.3433C147.229 29.289 147.352 29.258 147.478 29.2523L161.071 28.1554C161.194 28.1458 161.318 28.1604 161.435 28.1985C161.552 28.2366 161.661 28.2973 161.754 28.3774C161.848 28.4574 161.925 28.5551 161.981 28.6648C162.037 28.7746 162.071 28.8943 162.08 29.0171C162.09 29.1399 162.075 29.2635 162.037 29.3806C161.999 29.4978 161.938 29.6063 161.858 29.7C161.778 29.7936 161.681 29.8706 161.571 29.9266C161.461 29.9825 161.341 30.0162 161.218 30.0259L147.624 31.1214ZM147.512 22.511C147.425 22.5972 147.321 22.6653 147.207 22.7114C147.093 22.7575 146.971 22.7807 146.848 22.7798C146.725 22.7788 146.603 22.7536 146.49 22.7057C146.377 22.6577 146.274 22.588 146.188 22.5004C146.102 22.4128 146.034 22.3091 145.988 22.1952C145.941 22.0813 145.918 21.9594 145.919 21.8365C145.92 21.7136 145.945 21.5921 145.993 21.479C146.041 21.3658 146.111 21.2632 146.199 21.177L155.941 11.6393C156.118 11.4652 156.357 11.3686 156.606 11.3706C156.854 11.3725 157.091 11.473 157.265 11.6499C157.44 11.8268 157.536 12.0656 157.534 12.3138C157.532 12.562 157.432 12.7992 157.255 12.9733L147.512 22.511Z" fill="#F99B10"/>
<path d="M71.462 20.3601C71.4811 20.2374 71.4755 20.112 71.4457 19.9914L68.3174 6.72477C68.261 6.48271 68.1107 6.27296 67.8995 6.14167C67.6884 6.01037 67.4336 5.9683 67.1914 6.02468C66.9492 6.08107 66.7393 6.23131 66.6079 6.44235C66.4766 6.65339 66.4345 6.90793 66.4909 7.15L69.6178 20.4167C69.6443 20.538 69.6947 20.6529 69.7661 20.7547C69.8374 20.8564 69.9282 20.943 70.0333 21.0094C70.1384 21.0757 70.2557 21.1206 70.3783 21.1413C70.5009 21.162 70.6263 21.1581 70.7474 21.13C70.8685 21.1018 70.9828 21.0499 71.0836 20.9772C71.1844 20.9045 71.2698 20.8126 71.3348 20.7066C71.3997 20.6007 71.443 20.4829 71.462 20.3601Z" fill="#F99B10"/>
<path d="M60.889 29.344C60.7758 29.2895 60.6528 29.2583 60.5273 29.2523H60.5313L46.9381 28.1554C46.8152 28.1458 46.6916 28.1604 46.5743 28.1985C46.4571 28.2366 46.3485 28.2973 46.2548 28.3774C46.161 28.4574 46.084 28.5551 46.0281 28.6648C45.9721 28.7746 45.9383 28.8943 45.9287 29.0171C45.919 29.1399 45.9336 29.2635 45.9717 29.3806C46.0098 29.4978 46.0707 29.6063 46.1507 29.7C46.2308 29.7936 46.3286 29.8706 46.4384 29.9266C46.5482 29.9825 46.668 30.0162 46.7909 30.0259L60.3802 31.1214C60.5051 31.135 60.6314 31.1234 60.7517 31.0873C60.872 31.0512 60.9839 30.9914 61.0806 30.9113C61.1774 30.8312 61.257 30.7325 61.3149 30.6211C61.3727 30.5096 61.4076 30.3877 61.4175 30.2626C61.4273 30.1374 61.4119 30.0116 61.3722 29.8925C61.3325 29.7734 61.2693 29.6635 61.1863 29.5693C61.1032 29.475 61.0022 29.3984 60.889 29.344Z" fill="#F99B10"/>
<path d="M62.086 21.8312C62.084 21.583 61.9835 21.3458 61.8065 21.1717L52.0639 11.634C51.9762 11.5478 51.8724 11.4797 51.7585 11.4336C51.6445 11.3875 51.5225 11.3643 51.3996 11.3653C51.2766 11.3662 51.155 11.3914 51.0418 11.4394C50.9286 11.4873 50.8259 11.557 50.7397 11.6446C50.6534 11.7322 50.5853 11.8359 50.5391 11.9498C50.493 12.0637 50.4697 12.1856 50.4707 12.3085C50.4717 12.4314 50.4969 12.5529 50.5449 12.666C50.5928 12.7792 50.6626 12.8818 50.7503 12.968L60.4929 22.5057C60.6699 22.6798 60.9088 22.7764 61.1572 22.7744C61.4055 22.7725 61.6429 22.672 61.8171 22.4951C61.9913 22.3182 62.088 22.0794 62.086 21.8312Z" fill="#F99B10"/>
</svg>
