<svg width="24" height="24" viewBox="0 0 24 24" fill="none" xmlns="http://www.w3.org/2000/svg">
<path fill-rule="evenodd" clip-rule="evenodd" d="M12 22C17.5228 22 22 17.5228 22 12C22 6.47715 17.5228 2 12 2C6.47715 2 2 6.47715 2 12C2 17.5228 6.47715 22 12 22Z" fill="white"/>
<path d="M12.9743 13V17C12.9743 18.3333 10.9743 18.3333 10.9743 17V13H7.05127C5.71794 13 5.71794 11 7.05127 11H10.9743V7C10.9743 5.66667 12.9743 5.66667 12.9743 7V11H16.8974C18.2308 11 18.2308 13 16.8974 13H12.9743Z" fill="#0062FF"/>
</svg>
