<svg width="140" height="20" viewBox="0 0 140 20" fill="none" xmlns="http://www.w3.org/2000/svg">
<path d="M29.9136 11.6173L31.1096 8.66577L31.5173 7.43935L31.9522 8.66577L33.1482 11.6173H29.9136ZM10.0845 7.78976C9.47287 7.78976 8.91564 8.03234 8.50791 8.43666C8.11378 8.84097 7.85555 9.39353 7.85555 10C7.85555 10.6199 8.11378 11.1725 8.50791 11.5633C8.91564 11.9677 9.47287 12.2102 10.0845 12.2102H12.327V10C12.327 8.77359 11.3212 7.78976 10.0845 7.78976ZM15.7383 15.6065H10.098C8.5215 15.6065 7.10805 14.9865 6.08873 13.9623C5.06941 12.9515 4.43064 11.5499 4.43064 10.0135C4.43064 8.45014 5.06941 7.04852 6.08873 6.03774C6.67314 5.45822 7.39346 5 8.18173 4.73046V3.04582C8.18173 2.92453 8.33123 2.87062 8.41278 2.96496L9.32337 3.86792C9.37773 3.92183 9.45928 3.92183 9.52723 3.85445L9.98932 3.2345C10.0301 3.16712 10.1388 3.16712 10.2068 3.2345L10.6689 3.85445C10.7096 3.92183 10.8048 3.92183 10.8727 3.86792L11.7697 2.96496C11.8513 2.87062 11.9872 2.92453 11.9872 3.04582V4.73046C14.1753 5.49865 15.7383 7.57412 15.7383 10.0135V15.6065ZM18.2934 1.7655C17.1653 0.673854 15.6295 0 13.9307 0H6.25182C2.79973 0 0 2.77628 0 6.19946V13.814C0 17.2237 2.79973 20 6.25182 20H20.1689V6.19946C20.1689 4.46092 19.4486 2.89757 18.2934 1.7655ZM139.266 3.86792C138.587 3.78706 137.853 3.74663 137.051 3.74663C136.453 3.74663 135.909 3.76011 135.379 3.80054C134.604 4.93261 133.83 5.88949 133.082 6.68464C132.321 7.47978 131.424 8.26146 130.378 9.02965V3.86792C129.78 3.78706 129.209 3.74663 128.665 3.74663C128.122 3.74663 127.591 3.78706 127.075 3.86792V16.6038C127.646 16.6712 128.203 16.7116 128.733 16.7116C129.29 16.7116 129.848 16.6712 130.378 16.6038V12.372L131.37 11.7116L135.746 16.6038L137.486 16.6442C138.451 16.6442 139.293 16.5903 140 16.4825L133.938 9.79784C135.991 8.09973 137.757 6.1186 139.266 3.86792ZM120.837 3.86792V10.9299L120.932 11.9542L120.443 11.1725L114.966 3.76011C114.49 3.7062 113.946 3.7062 113.321 3.73315C112.709 3.76011 112.193 3.84097 111.799 3.96226V16.6038C112.41 16.6712 112.954 16.7116 113.416 16.7116C113.946 16.7116 114.503 16.6712 115.074 16.6038V9.60916L114.993 8.69272L115.455 9.44744L120.959 16.6981C122.046 16.7655 123.106 16.7116 124.126 16.5364V3.86792C123.528 3.78706 122.971 3.74663 122.441 3.74663C121.978 3.74663 121.448 3.78706 120.837 3.86792ZM101.66 11.6173L102.856 8.66577L103.264 7.43935L103.699 8.66577L104.895 11.6173H101.66ZM103.386 3.71968C102.693 3.71968 102.122 3.76011 101.687 3.84097L96.3596 16.4555C96.8081 16.6038 97.3925 16.6846 98.1128 16.6846C98.6972 16.6846 99.2001 16.6577 99.6214 16.6038L100.641 14.0701H105.914L106.933 16.6038C107.355 16.6577 107.762 16.6981 108.156 16.6981C108.795 16.6981 109.502 16.6173 110.29 16.4555L105.017 3.84097C104.568 3.76011 104.025 3.71968 103.386 3.71968ZM90.0942 14.5687C89.4962 14.5687 88.9253 14.5553 88.3545 14.5148V11.3073H90.2165C90.9912 11.3073 91.5756 11.4555 91.9833 11.7385C92.391 12.0081 92.5949 12.3989 92.5949 12.8976C92.5949 14.0162 91.7658 14.5687 90.0942 14.5687ZM88.3545 6.10512C88.9253 6.06469 89.4418 6.05121 89.9175 6.05121C90.6242 6.05121 91.1678 6.17251 91.5348 6.42857C91.9017 6.67116 92.0784 7.02156 92.0784 7.45283C92.0784 7.96496 91.9153 8.34232 91.6028 8.59838C91.2766 8.86792 90.7601 8.98922 90.0398 8.98922H88.3545V6.10512ZM95.9383 13.0593C95.9383 12.7089 95.8703 12.3315 95.7208 11.9272C95.5713 11.5364 95.2995 11.1725 94.9189 10.8491C94.5248 10.5256 94.0491 10.2695 93.4783 10.0809C94.7015 9.59569 95.3267 8.66577 95.3267 7.31806C95.3267 4.87871 93.4375 3.66577 89.6728 3.66577C88.0283 3.66577 86.4926 3.80054 85.0519 4.0566V16.6038C86.4654 16.8329 88.0284 16.9542 89.7544 16.9542C91.861 16.9542 93.4103 16.6173 94.4297 15.9299C95.4354 15.2561 95.9383 14.2992 95.9383 13.0593ZM78.5147 9.23181C78.1206 9.58221 77.509 9.75741 76.6935 9.75741L74.9403 9.74394V6.18598C75.5247 6.14555 76.0955 6.13208 76.6799 6.13208C77.4682 6.13208 78.0798 6.28032 78.4875 6.60377C78.9088 6.92722 79.1127 7.35849 79.1127 7.89757C79.1127 8.43666 78.9088 8.8814 78.5147 9.23181ZM81.4368 10.4987C81.8309 10.0674 82.1163 9.59569 82.2658 9.09704C82.4153 8.59838 82.4833 8.14016 82.4833 7.72237C82.4833 6.9407 82.3202 6.28032 81.9804 5.75472C81.6542 5.21563 81.2057 4.79784 80.6485 4.47439C80.0777 4.16442 79.4253 3.93531 78.6778 3.81402C77.9303 3.67925 77.1828 3.62534 76.4081 3.62534C75.6742 3.62534 74.8452 3.66577 73.9482 3.74663C73.0512 3.82749 72.2765 3.92183 71.6241 4.04313V16.6038C72.0862 16.6846 72.657 16.7116 73.3094 16.7116C73.9753 16.7116 74.519 16.6846 74.9403 16.6038V12.1833L76.5712 12.2102H76.7207L79.6428 16.6846L80.4854 16.6981C81.695 16.6981 82.6328 16.6173 83.2851 16.4555L79.9553 11.5499C80.5398 11.2803 81.029 10.9434 81.4368 10.4987ZM62.0017 14.1509C60.8329 14.1509 59.8952 13.7871 59.1884 13.0728C58.4681 12.345 58.1147 11.3881 58.1147 10.2022C58.1147 8.97574 58.4681 8.01887 59.1884 7.30458C59.8952 6.5903 60.8329 6.22642 62.0017 6.22642C63.1706 6.22642 64.1083 6.5903 64.8151 7.30458C65.5218 8.01887 65.8752 8.97574 65.8752 10.2022C65.8752 11.3881 65.5218 12.345 64.8151 13.0728C64.1083 13.7871 63.1706 14.1509 62.0017 14.1509ZM67.3566 15.0539C68.0225 14.4609 68.5526 13.7332 68.9195 12.8976C69.2865 12.0485 69.4767 11.159 69.4767 10.2022C69.4767 9.20485 69.2865 8.28841 68.9195 7.45283C68.5526 6.60377 68.0225 5.88949 67.3702 5.2965C66.7042 4.69003 65.9023 4.23181 64.9782 3.90836C64.054 3.58491 63.0618 3.42318 62.0017 3.42318C60.9281 3.42318 59.9359 3.58491 59.0253 3.92183C58.1147 4.25876 57.3129 4.71698 56.6469 5.32345C55.9674 5.92992 55.4509 6.6442 55.084 7.49326C54.717 8.32884 54.5267 9.23181 54.5267 10.2022C54.5267 11.186 54.717 12.0889 55.084 12.938C55.4509 13.7736 55.9674 14.4879 56.6469 15.0943C57.3129 15.6873 58.1147 16.1456 59.0253 16.469C59.9359 16.7925 60.9281 16.9542 62.0017 16.9542C63.0482 16.9542 64.0404 16.7925 64.9646 16.4555C65.8752 16.1321 66.677 15.6604 67.3566 15.0539ZM49.0904 3.86792V10.9299L49.1855 11.9542L48.6962 11.1725L43.2191 3.76011C42.7434 3.7062 42.1998 3.7062 41.5746 3.73315C40.963 3.76011 40.4466 3.84097 40.0524 3.96226V16.6038C40.664 16.6712 41.2076 16.7116 41.6697 16.7116C42.1998 16.7116 42.757 16.6712 43.3278 16.6038V9.60916L43.2463 8.69272L43.7084 9.44744L49.2127 16.6981C50.3 16.7655 51.3601 16.7116 52.3794 16.5364V3.86792C51.7814 3.78706 51.2242 3.74663 50.6941 3.74663C50.232 3.74663 49.702 3.78706 49.0904 3.86792ZM31.6396 3.71968C30.9465 3.71968 30.3757 3.76011 29.9408 3.84097L24.6131 16.4555C25.0616 16.6038 25.6461 16.6846 26.3664 16.6846C26.9508 16.6846 27.4536 16.6577 27.875 16.6038L28.8943 14.0701H34.1676L35.1869 16.6038C35.6082 16.6577 36.0159 16.6981 36.4101 16.6981C37.0488 16.6981 37.7556 16.6173 38.5438 16.4555L33.257 3.84097C32.8221 3.76011 32.2784 3.71968 31.6396 3.71968Z" fill="#8B0037"/>
</svg>
